# xmcd
#
# Track frame offsets:
#	150
#	13590
#	22362
#	23047
#	31040
#	38147
#	45739
#	52960
#	60170
#	68142
#	74712
#	81982
#	90515
#	97730
#	103427
#	110842
#	111617
#	118615
#	125820
#	134117
#	140932
#	146767
#	154217
#	160300
#	167765
#	175270
#	182145
#	188542
#	197082
#	202887
#	212440
#	220625
#	271367
#
# Disc length: 3796 seconds
#
# Revision: 1
# Processed by: cddbd v1.5.1PL0 Copyright (c) Steve Scherf et al.
# Submitted via: CDex 1.50Beta5
#
DISCID=f10ed221
DTITLE=キャプテン・ロック - YAT安心!宇宙旅行 サウンドトラック2
DYEAR=1997
DGENRE=
TTITLE0=キャプテン・ロック/星の舟唄
TTITLE1=H.I.M/HEAVEN
TTITLE2=PRELUDE
TTITLE3=WHEREVER GO!
TTITLE4=DESERT PLANET
TTITLE5=ATMOSPHERE OF DIMENSION
TTITLE6=BLACK EXISTENCE
TTITLE7=INVESTIGATION
TTITLE8=BOARDERLESS HOLE
TTITLE9=FUNNY STORY
TTITLE10=PROMISED LAND
TTITLE11=ELEGY
TTITLE12=HALLUCINATION
TTITLE13=ロック登場!
TTITLE14=APPROACH
TTITLE15=INTERLUDE
TTITLE16=HORIZON
TTITLE17=FRIGID ZONE
TTITLE18=AUBADE
TTITLE19=WITH PLEASURE!
TTITLE20=MERRY CREWS
TTITLE21=WHAT?
TTITLE22=YOU’RE KIDDING!
TTITLE23=DAWN
TTITLE24=NOCTURNE
TTITLE25=GALAXY STREAM
TTITLE26=DECISIVE BATTLE
TTITLE27=TRIUMPH
TTITLE28=STARRY SKY
TTITLE29=DAYTIME
TTITLE30=椎名へきる/MOON LIGHT
TTITLE31=くまいもとこ/メインキャスト・メッセージ
TTITLE32=星の舟唄
EXTD=
EXTT0=
EXTT1=
EXTT2=
EXTT3=
EXTT4=
EXTT5=
EXTT6=
EXTT7=
EXTT8=
EXTT9=
EXTT10=
EXTT11=
EXTT12=
EXTT13=
EXTT14=
EXTT15=
EXTT16=
EXTT17=
EXTT18=
EXTT19=
EXTT20=
EXTT21=
EXTT22=
EXTT23=
EXTT24=
EXTT25=
EXTT26=
EXTT27=
EXTT28=
EXTT29=
EXTT30=
EXTT31=
EXTT32=
PLAYORDER=
